<svg fill="none" height="72" viewBox="0 0 72 72" width="72" xmlns="http://www.w3.org/2000/svg" xmlns:xlink="http://www.w3.org/1999/xlink"><filter id="a" color-interpolation-filters="sRGB" filterUnits="userSpaceOnUse" height="72" width="72" x="0" y="0"><feFlood flood-opacity="0" result="BackgroundImageFix"/><feColorMatrix in="SourceAlpha" result="hardAlpha" type="matrix" values="0 0 0 0 0 0 0 0 0 0 0 0 0 0 0 0 0 0 127 0"/><feOffset dy="3"/><feGaussianBlur stdDeviation="5"/><feColorMatrix type="matrix" values="0 0 0 0 0.839216 0 0 0 0 0.341176 0 0 0 0 0.929412 0 0 0 0.3 0"/><feBlend in2="BackgroundImageFix" mode="normal" result="effect1_dropShadow_402_6864"/><feBlend in="SourceGraphic" in2="effect1_dropShadow_402_6864" mode="normal" result="shape"/></filter><linearGradient id="b" gradientUnits="userSpaceOnUse" x1="10" x2="10" y1="7" y2="59"><stop offset="0" stop-color="#f1abff"/><stop offset="1" stop-color="#d556ec"/></linearGradient><linearGradient id="c" gradientUnits="userSpaceOnUse" x1="23.4289" x2="23.4289" y1="24.3664" y2="47.999"><stop offset="0" stop-color="#fff"/><stop offset="1" stop-color="#fff" stop-opacity=".802448"/></linearGradient><g filter="url(#a)"><path d="m36 59c14.3594 0 26-11.6406 26-26s-11.6406-26-26-26-26 11.6406-26 26 11.6406 26 26 26z" fill="url(#b)"/></g><rect fill="url(#b)" height="52" rx="20" width="52" x="10" y="7"/><path d="m48.7831 46.7567-2.2237-20.0146c-.076-.6834-.7013-1.2423-1.388-1.2423h-17.5002c-.6875 0-1.3119.5589-1.3879 1.2423l-2.2237 20.0146c-.076.6839.4248 1.2423 1.1115 1.2423h22.4996c.6876 0 1.1884-.5584 1.1124-1.2423z" fill="url(#c)"/><path d="m48.7071 46.0728c-.1639.401-.5539.6756-1.0364.6756h-22.4996c-.4816 0-.8716-.2747-1.0365-.6756l-.075.6839c-.076.6839.4248 1.2423 1.1115 1.2423h22.4996c.6875 0 1.1883-.5584 1.1123-1.2423z" fill="#d770ad"/><path d="m41.4216 23c0-2.7617-2.2393-5-5.001-5-2.7611 0-4.9995 2.2383-4.9995 5v5.6051h.001c0 .0064-.001.0128-.001.0196 0 .3452.2793.6249.6253.6249.3442 0 .6244-.2797.6244-.6249 0-.0068 0-.0132-.001-.0196h.001v-5.6051c0-2.0681 1.6827-3.7499 3.7498-3.7499 2.0686 0 3.7504 1.6818 3.7504 3.7499v5.6051h.0018c-.0009.0064-.0018.0128-.0018.0196 0 .3452.2801.6249.6253.6249.3451 0 .6253-.2797.6253-.6249 0-.0068-.001-.0132-.0019-.0196h.0019z" fill="#656d78"/><path d="m38.7648 32.6868c-.9173 0-1.7491.3776-2.3442.9855-.595-.6079-1.4254-.9855-2.3436-.9855-1.8118 0-3.2812 1.4698-3.2812 3.2806 0 3.7499 5.6248 7.031 5.6248 7.031s5.6253-3.2811 5.6253-7.031c0-1.8108-1.4684-3.2806-3.2811-3.2806z" fill="#ff9090"/><path d="m38.7648 32.6868c-.2133 0-.4221.0215-.6244.0604 1.5124.292 2.6558 1.6227 2.6558 3.2202 0 2.9735-3.5352 5.6513-4.9999 6.6337.3826.2564.6243.3973.6243.3973s5.6253-3.2811 5.6253-7.031c0-1.8108-1.4684-3.2806-3.2811-3.2806z" fill="#000" opacity=".1"/></svg>