<svg fill="none" height="72" viewBox="0 0 72 72" width="72" xmlns="http://www.w3.org/2000/svg" xmlns:xlink="http://www.w3.org/1999/xlink"><filter id="a" color-interpolation-filters="sRGB" filterUnits="userSpaceOnUse" height="72" width="72" x="0" y="0"><feFlood flood-opacity="0" result="BackgroundImageFix"/><feColorMatrix in="SourceAlpha" result="hardAlpha" type="matrix" values="0 0 0 0 0 0 0 0 0 0 0 0 0 0 0 0 0 0 127 0"/><feOffset dy="3"/><feGaussianBlur stdDeviation="5"/><feColorMatrix type="matrix" values="0 0 0 0 0.972549 0 0 0 0 0.635294 0 0 0 0 0.00392157 0 0 0 0.3 0"/><feBlend in2="BackgroundImageFix" mode="normal" result="effect1_dropShadow_402_6846"/><feBlend in="SourceGraphic" in2="effect1_dropShadow_402_6846" mode="normal" result="shape"/></filter><linearGradient id="b" gradientUnits="userSpaceOnUse" x1="10" x2="10" y1="7" y2="59"><stop offset="0" stop-color="#fbd275"/><stop offset="1" stop-color="#f8a200"/></linearGradient><g filter="url(#a)"><path d="m36 59c14.3594 0 26-11.6406 26-26s-11.6406-26-26-26-26 11.6406-26 26 11.6406 26 26 26z" fill="url(#b)"/></g><rect fill="url(#b)" height="52" rx="20" width="52" x="10" y="7"/><path d="m44.8283 25.4034-1.7388-.7649v10.5747c0 .701-.2113 1.3444-.5714 1.8774-.6003.8884-1.6039 1.4695-2.7511 1.484h-4.3604c-1.3252 0-2.401-1.0758-2.401-2.401l1.4406-3.1277c0-.4802 0-.2333 0-.2333h-9.1239v.9604l-2.8812 2.4681-.4802.4131.7299.73.0678.082c.9843-.8023 2.3098-1.2917 3.7647-1.2917 3.054 0 5.5224 2.1513 5.5224 4.8021h10.5659c.5283 0 1.0134-.1393 1.4406-.3843-.0192-1.0613 2.6644-3.4421 3.2116-3.4564z" fill="#fff"/><path d="m25.3218 33.7731-2.8812 2.4681v-1.5077z" fill="#ed5565"/><path d="m40.0744 24.1879c.2544-.0767.5233.0722.5953.3266.0769.2547-.0673.5187-.3217.5956-.2544.0767-.5234-.0722-.6003-.3266-.072-.2544.072-.5182.3267-.5956z" fill="#656d78"/><path d="m40.6697 24.5145c-.072-.254-.3409-.4033-.5953-.3266l2.1084-.6193c-.0336.1104-.0528.2352-.0528.3602 0 .2208.0577.4272.1632.6049l-1.9447.5763c.2539-.0769.3981-.3409.3212-.5955z" fill="#545c66"/><path d="m35.1661 32.3237v-2.8779c0-.1325-.1076-.2401-.2401-.2401h-.4798c-.1324 0-.2401.1076-.2401.2401 0 .132-.1081.2401-.2401.2401h-8.6441c-.3972 0-.7204.3231-.7204.7203v1.9204c0 .3972.3232.7203.7204.7203.0009 0 .0014-.0005.0023-.0005h9.122c.3972 0 .7203-.3231.7203-.7203 0-.0009-.0004-.0014-.0004-.0024z" fill="#656d78"/><path d="m30.3649 40.9761c0 2.122-1.7203 3.8426-3.8425 3.8426-2.1223 0-3.8426-1.7206-3.8426-3.8426 0-2.1222 1.7203-3.8428 3.8426-3.8428 2.1222 0 3.8425 1.7206 3.8425 3.8428z" fill="#656d78"/><path d="m28.4432 40.9761c0 1.0608-.8601 1.9208-1.9208 1.9208-1.0608 0-1.9209-.86-1.9209-1.9208 0-1.061.8601-1.9208 1.9209-1.9208 1.0607 0 1.9208.8598 1.9208 1.9208z" fill="#e6e9ed"/><path d="m50.7732 40.9756c0 2.122-1.7203 3.8426-3.8425 3.8426-2.1223 0-3.8426-1.7206-3.8426-3.8426 0-2.1222 1.7203-3.8428 3.8426-3.8428 2.1222 0 3.8425 1.7206 3.8425 3.8428z" fill="#656d78"/><path d="m48.8515 40.9756c0 1.0608-.8601 1.9209-1.9208 1.9209-1.0608 0-1.9209-.8601-1.9209-1.9209 0-1.061.8601-1.9208 1.9209-1.9208 1.0607 0 1.9208.8598 1.9208 1.9208z" fill="#e6e9ed"/><path d="m46.1248 22.079c-.0547-.0452-.1262-.064-.1963-.052l-1.1414.2065c-1.8425.3213-1.8763.3328-1.8955.3396-.329.1057-.604.3207-.7799.6089-.0096.0105-.0178.0225-.0253.0345-.1191.2002-.1859.4333-.1942.6767-.0018.0114-.0028.0239-.0028.0361v.0075.0077c0 .012.001.0242.0028.0356.0087.2434.0751.4767.1942.677.007.0117.0152.0232.0244.0337.1758.2887.4513.5042.7775.609.0225.0075.0563.0192 1.8974.3404l1.1428.2064c.0138.0025.0289.004.0427.004.0558 0 .11-.0197.1536-.0559.0548-.0454.0865-.1127.0865-.1842v-3.3472c0-.0715-.0312-.1388-.0865-.1843z" fill="#e6e9ed"/><path d="m24.6015 30.6462v.4802h10.5646v-.4802z" fill="#545c66"/><g fill="#ed5565"><path d="m26.5224 35.4537c-3.0503 0-5.5224 2.4721-5.5224 5.5224h11.0447c0-3.0498-2.472-5.5224-5.5223-5.5224z"/><path d="m45.2931 37.0254c-2.205.9129-3.2524 3.4421-2.3392 5.6467l7.9861-3.3078c-.914-2.205-3.4421-3.2524-5.6469-2.3389z"/></g></svg>