<svg fill="none" height="72" viewBox="0 0 72 72" width="72" xmlns="http://www.w3.org/2000/svg" xmlns:xlink="http://www.w3.org/1999/xlink"><filter id="a" color-interpolation-filters="sRGB" filterUnits="userSpaceOnUse" height="72" width="72" x="0" y="0"><feFlood flood-opacity="0" result="BackgroundImageFix"/><feColorMatrix in="SourceAlpha" result="hardAlpha" type="matrix" values="0 0 0 0 0 0 0 0 0 0 0 0 0 0 0 0 0 0 127 0"/><feOffset dy="3"/><feGaussianBlur stdDeviation="5"/><feColorMatrix type="matrix" values="0 0 0 0 0.313726 0 0 0 0 0.345098 0 0 0 0 0.384314 0 0 0 0.3 0"/><feBlend in2="BackgroundImageFix" mode="normal" result="effect1_dropShadow_402_6874"/><feBlend in="SourceGraphic" in2="effect1_dropShadow_402_6874" mode="normal" result="shape"/></filter><linearGradient id="b" gradientUnits="userSpaceOnUse" x1="62" x2="62" y1="59" y2="7"><stop offset="0" stop-color="#505862"/><stop offset="1" stop-color="#9d9e9f"/></linearGradient><linearGradient id="c" gradientUnits="userSpaceOnUse" x1="30.1024" x2="30.1024" y1="36.8001" y2="24.3896"><stop offset="0" stop-color="#fff"/><stop offset="1" stop-color="#fff" stop-opacity=".802448"/></linearGradient><g filter="url(#a)"><path d="m36 59c14.3594 0 26-11.6406 26-26s-11.6406-26-26-26-26 11.6406-26 26 11.6406 26 26 26z" fill="url(#b)"/></g><rect fill="url(#b)" height="52" rx="20" width="52" x="10" y="7"/><path d="m35.5638 42.0191v6.9809h1.4769v-6.9809c-.2309.0635-.477.0935-.733.0935-.2565 0-.5071-.0344-.7439-.0989z" fill="#fff"/><path d="m38.7742 35.6683v.5367h-1.4819-1.9692-1.4769v-.5367c-2.0333-.9353-3.4462-2.9883-3.4462-5.371 0-3.2635 2.6486-5.9077 5.9077-5.9077 3.264 0 5.9077 2.6442 5.9077 5.9077 0 2.3827-1.408 4.4357-3.4412 5.371z" fill="url(#c)"/><path d="m34.8396 28.8193c-.6789 0-1.2312.5528-1.2312 1.2317 0 .2723.22.4923.4923.4923.2722 0 .4923-.22.4923-.4923 0-.1363.1108-.2471.2466-.2471.1354 0 .2462.1108.2462.2471 0 .2723.22.4923.4923.4923.2722 0 .4923-.22.4923-.4923 0-.6789-.5524-1.2317-1.2308-1.2317z" fill="#ffd775"/><path d="m36.317 28.8193c-.6788 0-1.2312.5528-1.2312 1.2317 0 .2723.22.4923.4923.4923.2722 0 .4923-.22.4923-.4923 0-.1363.1108-.2471.2466-.2471.1354 0 .2462.1108.2462.2471 0 .2723.2201.4923.4923.4923.2723 0 .4923-.22.4923-.4923 0-.6789-.5524-1.2317-1.2308-1.2317z" fill="#ffd775"/><path d="m37.7945 28.8193c-.6789 0-1.2313.5528-1.2313 1.2317 0 .2723.2201.4923.4923.4923.2723 0 .4923-.22.4923-.4923 0-.1363.1108-.2471.2467-.2471.1353 0 .2461.1108.2461.2471 0 .2723.2201.4923.4923.4923.2723 0 .4923-.22.4923-.4923 0-.6789-.5523-1.2317-1.2307-1.2317z" fill="#ffd775"/><g fill="#fff"><path d="m34.1002 29.5588c-.0788 0-.1585.0182-.2334.0586-.2392.1289-.3288.4278-.1994.667l1.7241 3.1981c.129.2392.4268.3298.6666.1989.2393-.129.3289-.4269.1994-.6666l-1.7241-3.198c-.0886-.165-.2584-.258-.4332-.258z"/><path d="m38.5334 29.5587c-.1748 0-.3446.0931-.4337.2585l-1.7246 3.198c-.1294.2393-.0398.5376.1994.6666.2403.131.5381.0394.6666-.1989l1.7246-3.198c.1294-.2393.0398-.5386-.1994-.6671-.0744-.0409-.1541-.0591-.2329-.0591z"/><path d="m36.3087 17.9845c-.2723 0-.4923.2201-.4923.4923v3.9385c0 .2722.22.4923.4923.4923.2722 0 .4923-.2201.4923-.4923v-3.9385c0-.2722-.2201-.4923-.4923-.4923z"/><path d="m42.2164 19.5673c-.1704 0-.3358.0886-.4269.2462l-1.9692 3.4107c-.1359.2358-.0551.5366.1802.673.2343.1353.5361.0556.6725-.1807l1.9692-3.4107c.1359-.2358.0552-.5366-.1802-.672-.0773-.0453-.1619-.0665-.2456-.0665z"/><path d="m46.5393 23.8922c-.0837 0-.1683.0212-.2456.0655l-3.4107 1.9692c-.2359.1354-.3166.4367-.1802.672.1363.2359.4371.3166.6725.1807l3.4107-1.9692c.2358-.1354.3165-.4367.1802-.672-.0911-.1576-.2565-.2462-.4269-.2462z"/><path d="m44.1846 29.799c-.2717 0-.4923.22-.4923.4923 0 .2712.2201.4923.4923.4923h3.938c.2717 0 .4923-.2201.4923-.4923 0-.2713-.2201-.4923-.4923-.4923z"/><path d="m28.4318 29.799h-3.939c-.2722 0-.4923.22-.4923.4923 0 .2722.2201.4923.4923.4923h3.939c.2722 0 .4923-.2201.4923-.4923 0-.2723-.2201-.4923-.4923-.4923z"/><path d="m26.0761 23.8913c-.1704 0-.3358.0886-.4269.2462-.1358.2358-.0551.5366.1802.673l3.4117 1.9692c.2348.1354.5361.0546.6725-.1807.1359-.2358.0551-.5366-.1802-.672l-3.4117-1.9692c-.0773-.0453-.1619-.0665-.2456-.0665z"/><path d="m30.4 19.5664c-.0837 0-.1684.0212-.2457.0665-.2358.1354-.3165.4366-.1801.672l1.9697 3.4117c.1359.2363.4371.3165.6725.1797.2358-.1354.3165-.4367.1802-.672l-1.9698-3.4117c-.091-.1576-.2565-.2462-.4268-.2462z"/></g><path d="m36.3077 32.2675c-.542 0-.9846.4386-.9846.9846v3.9385h1.9692v-3.9385c0-.5465-.4386-.9846-.9846-.9846z" fill="#e6e9ed"/><path d="m36.3077 42.1127c.256 0 .5021-.0301.733-.0931 1.2805-.3249 2.2258-1.4828 2.2258-2.8608h-.005v-2.4615l-.4873-.4923h-1.4819-1.9692-1.4769l-.4924.4923v-.4825 2.9391.0049c0 1.3731.9404 2.53 2.21 2.8549.2368.064.4874.099.7439.099z" fill="#ededed"/><path d="m38.7687 36.2152h-4.9221c-.2722 0-.4923.2201-.4923.4923 0 .2723.2201.4923.4923.4923h4.9221c.2723 0 .4923-.22.4923-.4923 0-.2722-.22-.4923-.4923-.4923z" fill="#656d78"/></svg>