<svg fill="none" height="72" viewBox="0 0 72 72" width="72" xmlns="http://www.w3.org/2000/svg" xmlns:xlink="http://www.w3.org/1999/xlink"><filter id="a" color-interpolation-filters="sRGB" filterUnits="userSpaceOnUse" height="72" width="72" x="0" y="0"><feFlood flood-opacity="0" result="BackgroundImageFix"/><feColorMatrix in="SourceAlpha" result="hardAlpha" type="matrix" values="0 0 0 0 0 0 0 0 0 0 0 0 0 0 0 0 0 0 127 0"/><feOffset dy="3"/><feGaussianBlur stdDeviation="5"/><feColorMatrix type="matrix" values="0 0 0 0 0.607843 0 0 0 0 0.396078 0 0 0 0 0.952941 0 0 0 0.3 0"/><feBlend in2="BackgroundImageFix" mode="normal" result="effect1_dropShadow_402_6839"/><feBlend in="SourceGraphic" in2="effect1_dropShadow_402_6839" mode="normal" result="shape"/></filter><linearGradient id="b" gradientUnits="userSpaceOnUse" x1="10.5311" x2="10.5311" y1="7" y2="57.9377"><stop offset="0" stop-color="#d8beff"/><stop offset="1" stop-color="#a770ff"/></linearGradient><linearGradient id="c" gradientUnits="userSpaceOnUse" x1="14.8874" x2="14.8874" y1="16.7747" y2="59"><stop offset="0" stop-color="#caf"/><stop offset="1" stop-color="#975ff2"/></linearGradient><linearGradient id="d" gradientUnits="userSpaceOnUse" x1="20.663" x2="20.663" y1="18.2666" y2="47.1015"><stop offset="0" stop-color="#fff"/><stop offset="1" stop-color="#fff" stop-opacity=".802448"/></linearGradient><g filter="url(#a)"><path d="m36 59c14.3594 0 26-11.6406 26-26s-11.6406-26-26-26-26 11.6406-26 26 11.6406 26 26 26z" fill="url(#b)"/></g><rect fill="url(#c)" height="52" rx="20" width="52" x="10" y="7"/><path clip-rule="evenodd" d="m37.9185 46.2554c0 .4673.3788.8461.8461.8461h7.1108c.4673 0 .8461-.3788.8461-.8461v-11.8323h2.0708c.6135.0043 1.1653-.3725 1.3846-.9454.2238-.5707.0706-1.2203-.3846-1.6308l-12.96-11.8085c-.564-.5187-1.4314-.5187-1.9954 0l-12.96 11.8093c-.4552.4101-.6085 1.0596-.3846 1.63.2192.5731.7711.9499 1.3846.9454h2.07v11.8323c0 .4673.3789.8461.8462.8461h7.1038c.4673 0 .8462-.3788.8462-.8461v-7.1839h4.1754zm8.5769-24.9139h-5.7054l6.5515 5.9569v-5.1107c-.0021-.4665-.3797-.8441-.8461-.8462z" fill="url(#d)" fill-rule="evenodd"/></svg>