<svg fill="none" height="72" viewBox="0 0 72 72" width="72" xmlns="http://www.w3.org/2000/svg" xmlns:xlink="http://www.w3.org/1999/xlink"><filter id="a" color-interpolation-filters="sRGB" filterUnits="userSpaceOnUse" height="72" width="72" x="0" y="0"><feFlood flood-opacity="0" result="BackgroundImageFix"/><feColorMatrix in="SourceAlpha" result="hardAlpha" type="matrix" values="0 0 0 0 0 0 0 0 0 0 0 0 0 0 0 0 0 0 127 0"/><feOffset dy="3"/><feGaussianBlur stdDeviation="5"/><feColorMatrix type="matrix" values="0 0 0 0 0.231373 0 0 0 0 0.666667 0 0 0 0 0.952941 0 0 0 0.3 0"/><feBlend in2="BackgroundImageFix" mode="normal" result="effect1_dropShadow_402_6831"/><feBlend in="SourceGraphic" in2="effect1_dropShadow_402_6831" mode="normal" result="shape"/></filter><linearGradient id="b" gradientUnits="userSpaceOnUse" x1="10" x2="10" y1="7" y2="59"><stop offset="0" stop-color="#7ad0ff"/><stop offset="1" stop-color="#3aa9f3"/></linearGradient><linearGradient id="c" gradientUnits="userSpaceOnUse" x1="23.3904" x2="23.3904" y1="28.7442" y2="48"><stop offset="0" stop-color="#fff"/><stop offset="1" stop-color="#fff" stop-opacity=".802448"/></linearGradient><g filter="url(#a)"><path d="m36 59c14.3594 0 26-11.6406 26-26s-11.6406-26-26-26-26 11.6406-26 26 11.6406 26 26 26z" fill="url(#b)"/></g><rect fill="url(#b)" height="52" rx="20" width="52" x="10" y="7"/><path d="m48.4552 44.9669-1.5559-10.2318c-.2832-1.8627-1.0495-3.6075-2.2048-5.0675-2.3475.5648-4.7373.8909-7.1336.9782l.9604.6844c.3953.2818.4874.8306.2057 1.2258-.1715.2406-.442.3689-.7165.3689-.1765 0-.3547-.0529-.5093-.1631l-1.2551-.8945-1.2551.8945c-.1546.1102-.3329.1631-.5093.1631-.2746 0-.545-.1282-.7165-.3689-.2818-.3952-.1896-.944.2057-1.2258l.9603-.6844c-2.3963-.0873-4.786-.4134-7.1335-.9782-1.1554 1.46-1.9216 3.2048-2.2048 5.0675l-1.5559 10.2318c-.1158.7606.1055 1.5315.607 2.115s1.2303.9181 1.9997.9181h2.3284l.5027-4.195c.0577-.482.4953-.8257.9772-.7681.482.0577.8259.4953.7681.9772l-.4776 3.9859h4.6247v-4.0905c0-.4854.3935-.8789.8789-.8789s.8789.3935.8789.8789v4.0905h4.6246l-.4776-3.9859c-.0577-.4819.2862-.9194.7681-.9772.4825-.0576.9195.2862.9773.7681l.5026 4.195h2.3285c.7693 0 1.4982-.3346 1.9997-.9181.5014-.5835.7227-1.3543.607-2.115z" fill="url(#c)"/><path d="m47.2355 19.7508c-.5593-1.08-1.6621-1.7508-2.8782-1.7508h-4.0617c-.4178 0-.7778.2941-.8612.7035-.3069 1.5065-1.6478 2.6-3.1883 2.6s-2.8814-1.0935-3.1883-2.6c-.0834-.4094-.4434-.7035-.8612-.7035h-4.0617c-1.2161 0-2.319.6708-2.8783 1.7508-.4928.9518-.4836 2.0835.0245 3.0272.5083.9437 1.4481 1.5742 2.514 1.6866l.6332.0668v3.4786c5.1431 1.2017 10.4925 1.2017 15.6355 0v-3.4786l.6333-.0668c1.0659-.1124 2.0057-.7429 2.5139-1.6866s.5173-2.0754.0245-3.0272z" fill="#fff"/></svg>