<svg fill="none" height="72" viewBox="0 0 72 72" width="72" xmlns="http://www.w3.org/2000/svg"><filter id="a" color-interpolation-filters="sRGB" filterUnits="userSpaceOnUse" height="72" width="72" x="0" y="0"><feFlood flood-opacity="0" result="BackgroundImageFix"/><feColorMatrix in="SourceAlpha" result="hardAlpha" type="matrix" values="0 0 0 0 0 0 0 0 0 0 0 0 0 0 0 0 0 0 127 0"/><feOffset dy="3"/><feGaussianBlur stdDeviation="5"/><feColorMatrix type="matrix" values="0 0 0 0 1 0 0 0 0 0.486275 0 0 0 0 0.447059 0 0 0 0.3 0"/><feBlend in2="BackgroundImageFix" mode="normal" result="effect1_dropShadow_402_6816"/><feBlend in="SourceGraphic" in2="effect1_dropShadow_402_6816" mode="normal" result="shape"/></filter><linearGradient id="b" gradientUnits="userSpaceOnUse" x1="62" x2="62" y1="59" y2="7"><stop offset="0" stop-color="#ff7171"/><stop offset="1" stop-color="#ffbc6c"/></linearGradient><linearGradient id="c" gradientUnits="userSpaceOnUse" x1="18.0751" x2="18.0751" y1="14.9334" y2="46.0783"><stop offset="0" stop-color="#fff"/><stop offset="1" stop-color="#fff" stop-opacity=".700639"/><stop offset="1" stop-color="#fff" stop-opacity=".793597"/></linearGradient><g filter="url(#a)"><path d="m36 59c14.3594 0 26-11.6406 26-26s-11.6406-26-26-26-26 11.6406-26 26 11.6406 26 26 26z" fill="url(#b)"/></g><rect fill="url(#b)" height="52" rx="20" width="52" x="10" y="7"/><path d="m35.976 22.5413c1.2974 0 2.418-.8272 2.8206-2.0441-.7681.2114-1.747.339-2.8206.339s-2.0525-.1276-2.8205-.339c.4024 1.2168 1.523 2.0441 2.8205 2.0441z" fill="#fff"/><path d="m50.9146 24.0378c-.0616-.1729-.1898-.3151-.3568-.3926l-5.7105-2.6361c-1.2146-.4115-2.4521-.7365-3.7017-.9741-.044-.0086-.0878-.0128-.131-.0128-.3093 0-.5863.2136-.6552.5267-.4563 2.0088-2.2345 3.5128-4.3835 3.5128s-3.9273-1.5039-4.3835-3.5128c-.0697-.3131-.3462-.5267-.6553-.5267-.0432 0-.087.0042-.131.0128-1.2494.2376-2.4869.5626-3.7035.9741l-5.7085 2.636c-.168.0775-.2971.2197-.3558.3926-.0607.1749-.0498.3637.0358.5287l2.479 4.8924c.1161.2322.3521.3716.6019.3716.0644 0 .1298-.0093.1942-.0287l2.7535-.8161v16.4159c0 .3728.3041.6768.6779.6768h16.3908c.3728 0 .6761-.3041.6761-.6768v-16.4157l2.7553.8161c.0644.0194.1297.0287.1941.0287.2492 0 .4843-.1394.602-.3716l2.48-4.8924c.0835-.1651.0954-.3539.0357-.5288z" fill="url(#c)"/></svg>