<svg fill="none" height="72" viewBox="0 0 72 72" width="72" xmlns="http://www.w3.org/2000/svg" xmlns:xlink="http://www.w3.org/1999/xlink"><filter id="a" color-interpolation-filters="sRGB" filterUnits="userSpaceOnUse" height="72" width="72" x="0" y="0"><feFlood flood-opacity="0" result="BackgroundImageFix"/><feColorMatrix in="SourceAlpha" result="hardAlpha" type="matrix" values="0 0 0 0 0 0 0 0 0 0 0 0 0 0 0 0 0 0 127 0"/><feOffset dy="3"/><feGaussianBlur stdDeviation="5"/><feColorMatrix type="matrix" values="0 0 0 0 0.313726 0 0 0 0 0.345098 0 0 0 0 0.384314 0 0 0 0.3 0"/><feBlend in2="BackgroundImageFix" mode="normal" result="effect1_dropShadow_402_6896"/><feBlend in="SourceGraphic" in2="effect1_dropShadow_402_6896" mode="normal" result="shape"/></filter><linearGradient id="b" gradientUnits="userSpaceOnUse" x1="62" x2="62" y1="59" y2="7"><stop offset="0" stop-color="#505862"/><stop offset="1" stop-color="#9d9e9f"/></linearGradient><g filter="url(#a)"><path d="m36 59c14.3594 0 26-11.6406 26-26s-11.6406-26-26-26-26 11.6406-26 26 11.6406 26 26 26z" fill="url(#b)"/></g><rect fill="url(#b)" height="52" rx="20" width="52" x="10" y="7"/><path d="m42.7059 31.2091c.0006.4258-.1785.8335-.4959 1.1288l-9.7337 9.4135c-.4233.4059-1.0427.5544-1.613.3867-.5703-.1676-.9995-.6243-1.1177-1.1892-.1183-.565.0935-1.1472.5515-1.5161l8.4959-8.2237-8.612-8.3251c-.4098-.3963-.5698-.9739-.4198-1.5153s.5872-.9642 1.147-1.1093c.5598-.145 1.157.0097 1.5668.406l9.7337 9.4136c.3182.2953.4978.7036.4972 1.1301z" fill="#fff"/></svg>