<svg fill="none" height="72" viewBox="0 0 72 72" width="72" xmlns="http://www.w3.org/2000/svg" xmlns:xlink="http://www.w3.org/1999/xlink"><filter id="a" color-interpolation-filters="sRGB" filterUnits="userSpaceOnUse" height="72" width="72" x="0" y="0"><feFlood flood-opacity="0" result="BackgroundImageFix"/><feColorMatrix in="SourceAlpha" result="hardAlpha" type="matrix" values="0 0 0 0 0 0 0 0 0 0 0 0 0 0 0 0 0 0 127 0"/><feOffset dy="3"/><feGaussianBlur stdDeviation="5"/><feColorMatrix type="matrix" values="0 0 0 0 0.27451 0 0 0 0 0.819608 0 0 0 0 0.556863 0 0 0 0.296137 0"/><feBlend in2="BackgroundImageFix" mode="normal" result="effect1_dropShadow_402_6824"/><feBlend in="SourceGraphic" in2="effect1_dropShadow_402_6824" mode="normal" result="shape"/></filter><linearGradient id="b" gradientUnits="userSpaceOnUse" x1="10.6231" x2="10.6231" y1="8.2462" y2="59"><stop offset="0" stop-color="#8af0e3"/><stop offset="1" stop-color="#54d094"/></linearGradient><linearGradient id="c" gradientUnits="userSpaceOnUse" x1="10" x2="10" y1="7" y2="59"><stop offset="0" stop-color="#a2f0e6"/><stop offset="1" stop-color="#44d18c"/></linearGradient><linearGradient id="d" gradientUnits="userSpaceOnUse" x1="28.3741" x2="28.3741" y1="34.6253" y2="47.384"><stop offset="0" stop-color="#fff"/><stop offset="1" stop-color="#fff" stop-opacity=".801273"/></linearGradient><g filter="url(#a)"><path d="m36 59c14.3594 0 26-11.6406 26-26s-11.6406-26-26-26-26 11.6406-26 26 11.6406 26 26 26z" fill="url(#b)"/></g><rect fill="url(#c)" height="52" rx="20" width="52" x="10" y="7"/><path d="m46.0138 45.7701-5.9549-15.0822-8.0843-.0044-5.9608 15.103 3.4498.3923-.4992 1.2052 14.1755-.0132-.576-1.2081z" fill="url(#d)"/><path d="m38.8296 18-2.7694 4.5805v.0125l-2.7608-4.5769-5.2352 1.4403 1.7841 4.8425 1.3379.7852.9599 4.5961 7.835.0033.9614-4.6163 1.3379-.785 1.7838-4.8427z" fill="#fff"/></svg>