<svg fill="none" height="24" viewBox="0 0 24 24" width="24" xmlns="http://www.w3.org/2000/svg"><path d="m20.7659 0h-17.53183c-1.78609 0-3.23407 1.44791-3.23407 3.23405v17.53175c0 1.7862 1.44792 3.2341 3.23407 3.2341h8.64663l.0147-8.5763h-2.22812c-.28956 0-.52458-.2341-.52569-.5237l-.01069-2.7645c-.00111-.2911.23461-.5277.52576-.5277h2.22404v-2.67119c0-3.0999 1.8933-4.78782 4.6586-4.78782h2.2692c.2903 0 .5257.23537.5257.52575v2.33103c0 .29026-.2352.52557-.5254.52575l-1.3926.00064c-1.5039 0-1.7951.71462-1.7951 1.76336v2.31258h3.3045c.3149 0 .5592.2749.5221.5876l-.3277 2.7645c-.0313.2645-.2556.4638-.522.4638h-2.9621l-.0148 8.5763h5.1449c1.7861 0 3.234-1.4479 3.234-3.234v-17.53195c-.0001-1.78614-1.448-3.23405-3.2341-3.23405z" fill="#3b5998"/></svg>