<svg fill="none" height="24" viewBox="0 0 24 24" width="24" xmlns="http://www.w3.org/2000/svg"><path d="m5.45166 15-.41547 2.9658-3.43016.0091c-.993263-1.8302-1.5384859-3.9139-1.500192-6.1173.037029-2.13063.506116-4.09141 1.500192-5.84371l5.00822.12938-1.04331 2.1648c-.29341.77311-.51965 2.68053-.53475 3.54953-.01629.9432.10122 2.3029.41547 3.1424z" fill="#fbbb00"/><path d="m24 11.8892c0 .8887-.092 1.7557-.2671 2.5919-.5947 2.8457-2.1487 5.3305-4.3014 7.089l-3.4864-.1814-.3002-2.9256c1.4284-.8512 2.4469-2.3873 3.0349-3.982h-6.6279v-4.91103h6.6279 5.1067c.1403.75093.2135 1.52653.2135 2.31913z" fill="#518ef8"/><path d="m19.5188 21.4955.0007.0006c-2.0382 1.5666-4.6274 2.5039-7.4459 2.5039-4.52943 0-8.46738-2.4207-10.47625-5.9831l3.85433-3.0169c1.00441 2.5632 3.5903 4.3879 6.62192 4.3879 1.303 0 2.5238-.3369 3.5713-.9249z" fill="#28b446"/><path d="m19.5195 2.56809-3.8035 2.95852c-1.0702-.63557-2.3353-1.00273-3.6906-1.00273-3.06038 0-5.66078 1.87182-6.60261 4.47612l-3.8248-2.97508h-.00064c1.95402-3.5794 5.8904-6.02492 10.42805-6.02492 2.8487 0 5.4607.964124 7.4941 2.56809z" fill="#f14336"/></svg>