<svg fill="none" height="24" viewBox="0 0 19 24" width="19" xmlns="http://www.w3.org/2000/svg"><g fill="#727c8e"><path clip-rule="evenodd" d="m15 24c-2.2091 0-4-1.7909-4-4s1.7909-4 4-4 4 1.7909 4 4-1.7909 4-4 4zm.7595-3.2405h1.1899v-1.519h-1.1899v-1.1899h-1.519v1.1899h-1.1899v1.519h1.1899v1.1899h1.519z" fill-rule="evenodd"/><path d="m11.506 16.7647c.9616-.9696 2.2401-1.5038 3.6003-1.5038.3027 0 .6016.0267.8937.0786-.4921-2.8826-2.4953-5.2505-5.1549-6.24188 1.3008-.8988 2.1558-2.40734 2.1558-4.11386 0-2.74809-2.2171-4.98376-4.94251-4.98376-2.72536 0-4.94254 2.23567-4.94254 4.98376 0 1.70633.85523 3.21506 2.15587 4.11386-3.07424 1.14608-5.27172 4.13118-5.27172 7.62438v3.278h10.0294c.0918-1.2226.6078-2.3593 1.4766-3.2353z"/></g></svg>