<svg fill="none" height="24" viewBox="0 0 13 24" width="13" xmlns="http://www.w3.org/2000/svg"><path d="m-.00000412 12c-.00055848.4188.16718712.8197.46445412 1.11l9.11655 9.2568c.39646.3991.9766.5451 1.5107.3803.5341-.1649.9361-.6139 1.0469-1.1695.1107-.5556-.0876-1.1281-.5166-1.4908l-7.95719-8.0868 8.06589-8.1864c.3838-.38971.5337-.95772.3932-1.49006-.1404-.53235-.55-.94816-1.0742-1.0908-.5243-.14264-1.08372.00955-1.46752.39926l-9.116548 9.2568c-.297999.2904-.46620803.6918-.46563612 1.1112z" fill="#727c8e"/></svg>