<svg fill="none" height="31" viewBox="0 0 31 31" width="31" xmlns="http://www.w3.org/2000/svg"><g fill="#727c8e"><path d="m24.2394 22.0173-14.2539-14.25395c-.34593-.34593-1.06031-.19246-1.59555.34278-.53529.53529-.68872 1.24963-.34279 1.59556l14.25394 14.25391c.346.346 1.0603.1925 1.5956-.3427.5352-.5353.6887-1.2496.3427-1.5956z"/><path d="m8.56123 8.56125 11.33007.19128c.5654.00955 1.0159-.44102 1.0064-1.00639-.0096-.56534-.4756-1.03139-1.041-1.04097l-12.35372-.2086c-.56537-.00955-1.01594.44102-1.0064 1.00639l.20861 12.35374c.00474.2827.12368.5406.31206.7289.18837.1884.44625.3074.72894.3121.56537.0095 1.01594-.441 1.00639-1.0064z"/></g></svg>