<svg fill="none" height="14" viewBox="0 0 24 14" width="24" xmlns="http://www.w3.org/2000/svg"><path d="m12.0034 13.7154c.4646.0006.9094-.1883 1.2314-.5232l10.2694-10.26935c.4427-.44659.6047-1.10007.4218-1.70174-.1828-.601666-.681-1.05451-1.2973-1.17926-.6164-.1247504-1.2515.098708-1.6539.581913l-8.9714 8.963397-9.08188-9.085873c-.43233-.4323342-1.06247-.6011798-1.65305-.4429346-.590578.1582446-1.051871.6195396-1.2101161 1.2101176-.1582451.59058.010599 1.22072.4429331 1.65305l10.269413 10.26938c.3221.3357.7674.5252 1.2327.5245z" fill="#727c8e"/></svg>