<svg fill="none" height="20" viewBox="0 0 24 20" width="24" xmlns="http://www.w3.org/2000/svg"><g fill="#727c8e"><path clip-rule="evenodd" d="m18.2637 3.80771 2.5187.01264c1.7671 0 3.2176 1.39154 3.2176 3.08664v9.98101c0 1.6952-1.4505 3.112-3.2176 3.112h-17.56483c-1.767 0-3.21757-1.4168-3.21757-3.112v-9.98101c0-1.6951 1.45057-3.08664 3.21762-3.08664l2.33407-.01264 2.49231-3.466153c.14502-.202389.38238-.341557.64614-.341557h6.50106c.2637 0 .5143.139123.6593.354192zm2.5188 14.67419c.8966 0 1.6351-.7336 1.6351-1.5938h-.0132v-9.98109c0-.86019-.7384-1.56862-1.6351-1.56862l-2.9539-.02531c-.2505 0-.501-.13917-.6461-.34156l-2.4-3.44088h-5.65718l-2.49231 3.46615c-.14502.20239-.38239.34156-.64614.34156h-2.75606c-.89667 0-1.63515.70838-1.63515 1.56862v9.98103c0 .8602.73843 1.5939 1.63515 1.5939z" fill-rule="evenodd"/><path clip-rule="evenodd" d="m7.20001 11.1765c0-2.91492 2.41414-5.29418 5.39999-5.29418 2.9732 0 5.4 2.37922 5.4 5.29408 0 2.9149-2.4268 5.2942-5.4 5.2942-2.97316 0-5.39999-2.3793-5.39999-5.2941zm1.52472 0c0 2.0928 1.74067 3.7994 3.87527 3.7994s3.8753-1.7066 3.8753-3.7994c0-2.09271-1.7407-3.7993-3.8753-3.7993s-3.87527 1.70659-3.87527 3.7993z" fill-rule="evenodd"/><path d="m19.8 8.23531c.3314 0 .6-.26336.6-.58824 0-.32487-.2686-.58823-.6-.58823s-.6.26336-.6.58823c0 .32488.2686.58824.6.58824z"/></g></svg>