<svg fill="none" height="24" viewBox="0 0 42 24" width="42" xmlns="http://www.w3.org/2000/svg"><path clip-rule="evenodd" d="m9.36071 0h30.75659c.7385 0 1.3372.596912 1.3372 1.33332v21.33338c0 .7363-.5987 1.3333-1.3372 1.3333h-30.75659v-.6667c0-.3684-.29901-.6666-.66862-.6666-.36952 0-.66861.2981-.66861.6666v.6667h-6.68625c-.738487 0-1.33723-.597-1.33723-1.3333v-5.8688c0-.336.165737-.6554.452356-.8322 1.332614-.8219 2.222114-2.2885 2.222114-3.9657s-.8895-3.14384-2.222114-3.96566c-.286619-.1768-.452356-.49616-.452356-.83224v-5.86878c0-.736408.598743-1.33332 1.33723-1.33332h6.68625v.666662c0 .368448.299.666658.66861.666658.36953 0 .66862-.29813.66862-.666658zm-.66862 21.3333c.36953 0 .66862-.2981.66862-.6667v-1.3333c0-.3684-.29901-.6667-.66862-.6667-.36952 0-.66861.2982-.66861.6667v1.3333c0 .3685.29901.6667.66861.6667zm.66862-4.6667c0 .3686-.29909.6667-.66862.6667-.3696 0-.66861-.2982-.66861-.6667v-1.3333c0-.3685.29909-.6667.66861-.6667.36961 0 .66862.2983.66862.6667zm-.66862-3.3333c.36953 0 .66862-.2982.66862-.6667v-1.3333c0-.3685-.29901-.6667-.66862-.6667-.36952 0-.66861.2982-.66861.6667v1.3333c0 .3685.29901.6667.66861.6667zm.66862-4.6667c0 .36853-.29909.66666-.66862.66666-.3696 0-.66861-.29821-.66861-.66666v-1.33332c0-.36853.29909-.66667.66861-.66667.36961 0 .66862.29822.66862.66667zm-.66862-3.33335c.36953 0 .66862-.29813.66862-.66666v-1.33332c0-.36845-.29901-.66667-.66862-.66667-.36952 0-.66861.29814-.66861.66667v1.33332c0 .36845.29901.66666.66861.66666z" fill="#727c8e" fill-rule="evenodd"/><path d="m39.6942 22.9092h-28.1157c-.3697 0-.6694-.29-.6694-.6478v-19.43179c0-.35775.2997-.64773.6694-.64773h28.1157c.3697 0 .6694.28998.6694.64773v19.43179c0 .3578-.2997.6478-.6694.6478z" fill="#727c8e"/><path d="m25.0909 15.3208-3.5427 1.9907c-.7808.4387-1.7605-.1984-1.5357-.9986l1.0205-3.6309-3.21-2.4006c-.7074-.52903-.3332-1.55993.5866-1.61572l4.1734-.25328 1.5588-3.47436c.3436-.76569 1.5546-.76569 1.8982 0l1.5588 3.47436 4.1734.25328c.9198.05586 1.294 1.08676.5865 1.61572l-3.21 2.4006 1.0205 3.6309c.2249.8002-.7548 1.4374-1.5356.9986z" fill="#fff"/><path d="m30.0555 14.7766c-4.5483-.2383-8.4045-2.6514-10.1666-6.04931l-1.4535.08444c-.9446.05492-1.329 1.06869-.6024 1.58887l3.2965 2.3607-1.0481 3.5705c-.2309.7869.7752 1.4134 1.5771.982l3.6382-1.9576 3.6381 1.9576c.8018.4314 1.808-.1951 1.577-.982z" fill="#f3f6fb"/></svg>