<svg fill="none" height="24" viewBox="0 0 6 24" width="6" xmlns="http://www.w3.org/2000/svg"><path d="m.998 11.999c0 1.3813 1.11974 2.501 2.501 2.501s2.501-1.1197 2.501-2.501c0-1.3812-1.11974-2.50095-2.501-2.50095s-2.501 1.11975-2.501 2.50095z" fill="#727c8e"/><g fill="#e3e5e8"><path d="m.998 21.497c0 1.3812 1.11974 2.501 2.501 2.501s2.501-1.1198 2.501-2.501c0-1.3813-1.11974-2.501-2.501-2.501s-2.501 1.1197-2.501 2.501z"/><path d="m.998 2.501c0 1.38126 1.11974 2.501 2.501 2.501s2.501-1.11974 2.501-2.501-1.11974-2.501-2.501-2.501-2.501 1.11974-2.501 2.501z"/></g></svg>