<svg fill="none" height="24" viewBox="0 0 21 24" width="21" xmlns="http://www.w3.org/2000/svg" xmlns:xlink="http://www.w3.org/1999/xlink"><mask id="a" height="24" maskUnits="userSpaceOnUse" width="21" x="0" y="0"><path d="m0 0h21v24h-21z" fill="#fff"/></mask><g mask="url(#a)"><path clip-rule="evenodd" d="m18.5294 16.8v-6.6c.0156-3.61344-2.5504-6.75423-6.1765-7.56v-.84c0-.994113-.8295-1.8-1.8529-1.8-1.02335 0-1.85294.805887-1.85294 1.8v.84c-3.62609.80577-6.1921 3.94656-6.17647 7.56v6.6l-2.47059 2.4v1.2h21v-1.2zm-8.0294 7.2c1.3628-.004 2.4665-1.0762 2.4706-2.4h-4.9412c.00407 1.3238 1.10781 2.396 2.4706 2.4zm-5.55884-6h11.11764v-7.8c0-2.98229-2.4888-5.39995-5.5588-5.39995-3.07007 0-5.55884 2.41766-5.55884 5.39995z" fill="#727c8e" fill-rule="evenodd"/></g></svg>