<svg fill="none" height="24" viewBox="0 0 24 24" width="24" xmlns="http://www.w3.org/2000/svg"><path clip-rule="evenodd" d="m17.9363 16.5257 5.7698 5.7698c.3919.3918.3919 1.0188 0 1.4106-.3918.3919-1.0237.3919-1.4155 0l-5.7698-5.7649c-1.7437 1.4302-3.9722 2.2874-6.4065 2.2874-5.58859 0-10.1143-4.5306-10.1143-10.1143 0-5.58369 4.52571-10.1143 10.1143-10.1143 5.5837 0 10.1143 4.53061 10.1143 10.1143 0 2.4343-.8621 4.6677-2.2923 6.4114zm-15.92814-6.4115c0 4.4669 3.63429 8.1012 8.10614 8.1012 4.4669 0 8.1061-3.6343 8.1061-8.1012 0-4.46696-3.6392-8.10614-8.1061-8.10614-4.47185 0-8.10614 3.63918-8.10614 8.10614z" fill="#727c8e" fill-rule="evenodd"/></svg>