<svg fill="none" height="24" viewBox="0 0 16 24" width="16" xmlns="http://www.w3.org/2000/svg"><g fill="#727c8e"><path d="m11.5 8.40002c-.2762 0-.5.25703-.5.57417v10.85171c0 .3169.2238.5741.5.5741s.5-.2572.5-.5741v-10.85171c0-.31714-.2238-.57417-.5-.57417z"/><path d="m4.5 8.40002c-.27617 0-.5.25703-.5.57417v10.85171c0 .3169.22383.5741.5.5741s.5-.2572.5-.5741v-10.85171c0-.31714-.22383-.57417-.5-.57417z"/><path clip-rule="evenodd" d="m1.31033 20.993v-13.84793c-.855494-.27664-1.4098429-1.28351-1.2954049-2.35296.1146179-1.06922.8623409-1.86906 1.7475649-1.86928h2.36211v-.70257c-.0027-.59082.18905-1.15815.53237-1.575517.34331-.417152.80971-.64943964 1.29468-.64460946h4.09675c.4849-.00483018.9513.22745746 1.2946.64460946.3433.417367.5351.984697.5324 1.575517v.70257h2.3621c.8852.00022 1.633.80006 1.7476 1.86928.1144 1.06945-.4399 2.07632-1.2954 2.35296v13.84793c0 .8185-.2464 1.5871-.6767 2.1387-.4282.553-1.0244.867-1.6485.8683h-8.72901c-.62391-.0013-1.22007-.3153-1.64845-.8683-.43035-.5516-.67671-1.3202-.67671-2.1387zm2.32516 1.8829h8.72901c.7888 0 1.4025-.8255 1.4025-1.8829v-13.79853h-11.53396v13.79853c0 1.0574.61364 1.8829 1.40245 1.8829zm1.41183-20.65562c-.00307-.29267.09137-.57436.26185-.78096.17031-.2066.40207-.32011.64248-.31506h4.09675c.2404-.00505.4721.10846.6424.31506.1705.20638.2649.48829.2619.78096v.70257h-5.90538zm9.19018 1.82667h-12.47501c-.45865 0-.830438.45294-.830438 1.01171 0 .55876.371788 1.0117.830438 1.0117h12.47501c.4587 0 .8304-.45294.8304-1.0117 0-.55877-.3717-1.01171-.8304-1.01171z" fill-rule="evenodd"/><path d="m8.5 8.40002c-.27617 0-.5.25703-.5.57417v10.85171c0 .3169.22383.5741.5.5741s.5-.2572.5-.5741v-10.85171c0-.31714-.22383-.57417-.5-.57417z"/></g></svg>