<svg fill="none" height="23" viewBox="0 0 26 23" width="26" xmlns="http://www.w3.org/2000/svg"><g fill="#727c8e"><path clip-rule="evenodd" d="m8.73366 14.5716h-.0011c-.38691.0009-.7013.3048-.7013.6784 0 .3741.31549.6786.70313.6786h12.75001c.3884 0 .7031.3037.7031.6785s-.3147.6786-.7031.6786h-12.75001c-1.16309 0-2.10938-.9132-2.10938-2.0357 0-.8353.52423-1.5544 1.27149-1.8678l-2.53858-11.02506h-3.65479c-.38837 0-.70313-.30376-.70313-.67857 0-.3748.31476-.67857.70313-.67857h4.21875c.32959 0 .61487.22089.68647.53137l.50262 2.18292h17.18593c.2207 0 .4285.10001.5614.27001.1328.17.1753.39018.1146.59499l-2.8125 9.50001c-.0862.2912-.3621.4921-.676.4921h-12.748zm12.22034-1.3573 2.4107-8.14289h-15.94134l1.875 8.14289z" fill-rule="evenodd"/><path d="m8.73256 14.5716v-.25h-.00057zm.0011 0v.2504l.01386-.0008zm-.83716-1.1894.09671.2305.19416-.0814-.04725-.2052zm-2.53858-11.02505.24362-.0561-.04464-.1939h-.19898zm1.25043-.82578.24362-.05609-.00002-.00008zm.50262 2.18292-.24362.0561.04464.1939h.19898zm17.74733.27002.197-.15387v-.00012zm.1146.59497.2398.07097v-.00002zm-2.8125 9.50002.2397.071h.0001zm-13.424.4921v-.2503l-.01386.0007zm14.6283-9.49999.2397.07097.0951-.32097h-.3348zm-2.4107 8.14289v.25h.1867l.053-.1791zm-13.53064-8.14289v-.25h-.31411l.07048.3061zm1.875 8.14289-.24363.0561.04465.1939h.19898zm-.5658 1.6073h.0011v-.5h-.0011zm-.4513.4284c0-.2274.19435-.4278.45187-.4284l-.00114-.5c-.51629.0012-.95073.4087-.95073.9284zm.45313.4286c-.25802 0-.45313-.2009-.45313-.4286h-.5c0 .5205.43588.9286.95313.9286zm12.75001 0h-12.75001v.5h12.75001zm.9531.9285c0-.5211-.4351-.9285-.9531-.9285v.5c.2588 0 .4531.2001.4531.4285zm-.9531.9286c.518 0 .9531-.4074.9531-.9286h-.5c0 .2285-.1943.4286-.4531.4286zm-12.75001 0h12.75001v-.5h-12.75001zm-2.35938-2.2857c0 1.2688 1.06667 2.2857 2.35938 2.2857v-.5c-1.03347 0-1.85938-.8096-1.85938-1.7857zm1.42477-2.0984c-.83262.3493-1.42477 1.1545-1.42477 2.0984h.5c0-.7267.45631-1.3596 1.1182-1.6373zm-2.68549-10.73836 2.53858 11.02506.48725-.1122-2.53858-11.02505zm-3.41116.19391h3.65479v-.5h-3.65479zm-.95313-.92859c0 .52118.43513.92859.95313.92859v-.5c-.25875 0-.45313-.20014-.45313-.42859zm.95313-.92856c-.51799 0-.95313.4074-.95313.92856h.5c0-.22841.19438-.42856.45313-.42856zm4.21875 0h-4.21875v.5h4.21875zm.93007.7252c-.09901-.42942-.48977-.7252-.93007-.7252v.5c.21888 0 .39869.14599.44286.33754zm.50265 2.183-.50263-2.18292-.48725.11219.50263 2.18292zm16.9423-.19391h-17.18593v.5h17.18593zm.7584.36603c-.1815-.23213-.4628-.36603-.7584-.36603v.5c.1457 0 .2801.06612.3645.17402zm.1574.81991c.0838-.28323.0245-.58698-.1574-.81979l-.394.30775c.0837.10715.1093.24377.0719.37015zm-2.8125 9.50007 2.8125-9.50005-.4795-.14193-2.8125 9.49998zm-.9158.6711c.4195 0 .7966-.2689.9157-.6711l-.4794-.142c-.0534.1803-.2281.3131-.4363.3131zm-12.748 0h12.748v-.5h-12.748zm.01112-.0002.00275-.0001-.02773-.4993-.00275.0002zm14.37748-9.82076-2.4108 8.14286.4795.1419 2.4107-8.14282zm-15.70164.32097h15.94134v-.5h-15.94134zm2.11862 7.83679-1.875-8.14289-.48725.1122 1.875 8.14289zm11.41202-.1939h-11.65564v.5h11.65564z"/><g clip-rule="evenodd" fill-rule="evenodd"><path d="m10 22.1715c-1.18154 0-2.14285-.9614-2.14285-2.1429s.96131-2.1429 2.14285-2.1429c1.1816 0 2.1429.9614 2.1429 2.1429s-.9613 2.1429-2.1429 2.1429zm.7143-2.1429c0-.3938-.3205-.7143-.7143-.7143-.39378 0-.71428.3205-.71428.7143s.3205.7143.71428.7143c.3938 0 .7143-.3205.7143-.7143z"/><path d="m20.2857 22.1715c-1.1815 0-2.1428-.9614-2.1428-2.1429s.9613-2.1429 2.1428-2.1429c1.1816 0 2.1429.9614 2.1429 2.1429s-.9613 2.1429-2.1429 2.1429zm.7143-2.1429c0-.3938-.3205-.7143-.7143-.7143s-.7143.3205-.7143.7143.3205.7143.7143.7143.7143-.3205.7143-.7143z"/></g></g></svg>