<svg fill="none" height="23" viewBox="0 0 24 23" width="24" xmlns="http://www.w3.org/2000/svg" xmlns:xlink="http://www.w3.org/1999/xlink"><mask id="a" height="23" maskUnits="userSpaceOnUse" width="24" x="0" y="0"><path d="m0 0h24v23h-24z" fill="#fff"/></mask><g fill="#727c8e" mask="url(#a)"><path clip-rule="evenodd" d="m23.6636 9.73025-11.0667-9.376741c-.3071-.260245-.7661-.260245-1.0731 0l-11.066751 9.376741c-.324802.28935-.351548.77645-.060269 1.09745.29128.321.79425.3588 1.13338.0852l.85649-.7263v11.6998c0 .4345.3644.7868.81391.7868h17.72074c.4495 0 .8139-.3523.8139-.7868v-11.6937l.8565.7263c.3392.2736.8421.2358 1.1334-.0853.2913-.321.2645-.808-.0603-1.0974zm-13.4809 11.36925v-6.48h3.7565v6.48zm9.9247.0012v-12.28559-.00121c0-.0005.0001-.00079.0002-.00094l.0011.00094s-.0008-.00152-.0011-.00094l-8.0454-6.81674-8.04647 6.81768v12.2868h4.54038v-7.2631c0-.4346.36441-.7869.81392-.7869h5.38437c.4495 0 .8139.3523.8139.7869v7.2631z" fill-rule="evenodd"/><path d="m12.5969.353516-.1617.190712.0001.000027zm11.0667 9.376744.2448-.05077-.0175-.08431-.0657-.05566zm-12.1398-9.376744.1616.190739v-.000027zm-11.066751 9.376744-.161662-.1908-.004649.00414zm-.060269 1.09744.185144-.168zm1.13338.0852.15703.1947.00466-.004zm.85649-.7263h.25v-.53978l-.41169.34912zm19.34855.0061.1617-.1907-.4117-.34914v.53984zm.8565.7263-.1617.1907.0047.0038zm1.0731-1.1827-.2448.05076.0168.08092.0617.05497zm-13.4821 4.8832v-.25h-.25001v.25zm0 6.48h-.25001v.25h.25001zm3.7565-6.48h.25v-.25h-.25zm0 6.48v.25h.25v-.25zm6.1682.0012v.25h.25v-.25zm.0002-12.28774.2179.12256.1011-.17988-.1574-.13342zm-8.0454-6.81674.1616-.19074-.1616-.13694-.1616.13694zm-8.04647 6.81768-.16161-.19074-.08839.07489v.11585zm0 12.2868h-.25v.25h.25zm4.54038 0v.25h.25v-.25zm7.01219 0h-.25v.25h.25zm-3.133-20.556445 11.0667 9.376735.3232-.38147-11.0667-9.376744zm-.7499-.000027c.2138-.181204.536-.181204.7498 0l.3233-.381425c-.4003-.339304-.9961-.339304-1.3964 0zm-11.066739 9.376762 11.066739-9.376735-.3233-.381479-11.066663 9.376744zm-.036737.73871c-.197329-.2175-.180259-.5453.041436-.74279l-.332622-.37331c-.42791.38127-.464331 1.0275-.079101 1.4521zm.791256.0587c-.23692.1911-.589727.1634-.791256-.0587l-.370287.336c.38103.4199 1.034173.4679 1.475513.1118zm.85178-.72246-.85649.72636.32338.3813.85649-.7263zm.41169 11.89046v-11.6998h-.5v11.6998zm.56391.5368c-.31948 0-.56391-.2483-.56391-.5368h-.5c0 .5805.48437 1.0368 1.06391 1.0368zm17.72074 0h-17.72074v.5h17.72074zm.5639-.5368c0 .2885-.2444.5368-.5639.5368v.5c.5796 0 1.0639-.4563 1.0639-1.0368zm0-11.6937v11.6937h.5v-11.6937zm1.2682.5356-.8565-.7263-.3234.3813.8565.7263zm.7866-.0626c-.2016.2221-.5544.2499-.7913.0587l-.314.3891c.4414.3561 1.0945.3082 1.4756-.1118zm-.0415-.74275c.2217.19755.2388.52535.0415.74275l.3703.336c.3852-.4245.3488-1.07079-.0791-1.45206zm-.0797-.14193.0012.00604.4896-.10153-.0012-.00604zm-13.48611 4.83848v6.48h.50001v-6.48zm4.00651-.25h-3.7565v.5h3.7565zm.25 6.73v-6.48h-.5v6.48zm-4.0065.25h3.7565v-.5h-3.7565zm9.6747-12.53438v12.28558h.5v-12.28558zm0-.00122v.00122h.5v-.00122zm.0323-.12351c-.0213.03787-.0273.07187-.0293.08487-.0026.01661-.003.03029-.003.03864h.5c0 .00787-.0003.02115-.0029.03745-.0012.00836-.0034.01965-.0073.0327-.0037.0126-.0102.03097-.0217.05147zm-7.9891-6.50343 8.0453 6.81674.3233-.38148-8.0454-6.81674zm-7.72326 6.81768 8.04646-6.81768-.3232-.38148-8.04648 6.81768zm.08839 12.09606v-12.2868h-.5v12.2868zm4.29038-.25h-4.54038v.5h4.54038zm-.25-7.0131v7.2631h.5v-7.2631zm1.06392-1.0368c-.57954 0-1.06392.4562-1.06392 1.0368h.5c0-.2886.24443-.5368.56392-.5368zm5.38437 0h-5.38437v.5h5.38437zm1.0639 1.0368c0-.5806-.4844-1.0368-1.0639-1.0368v.5c.3195 0 .5639.2482.5639.5368zm0 7.2631v-7.2631h-.5v7.2631zm4.2891-.25h-4.5391v.5h4.5391z"/></g></svg>