<svg fill="none" height="23" viewBox="0 0 24 23" width="24" xmlns="http://www.w3.org/2000/svg" xmlns:xlink="http://www.w3.org/1999/xlink"><mask id="a" height="23" maskUnits="userSpaceOnUse" width="24" x="0" y="0"><path d="m0 0h24v23h-24z" fill="#fff"/></mask><g fill="#727c8e" mask="url(#a)"><path clip-rule="evenodd" d="m17.2734 13.6952c1.1818.4987 2.2862 1.1639 3.2795 1.9756.9578 1.1559 1.4811 2.6103 1.4793 4.1115.0072.4669-.1733.9172-.501 1.2499s-.7751.52-1.2421.52h-17.4316c-.46698 0-.91446-.1873-1.24215-.52-.32768-.3327-.50817-.783-.50101-1.2499-.00174-1.5003.52117-2.9539 1.4782-4.1092.99338-.8115 2.09772-1.4768 3.27946-1.9756.87659-.3996 1.71918-.8698 2.51944-1.4061-1.30365-1.478-2.07556-3.34944-2.19289-5.31668-.09102-1.31099.12877-2.62494.64148-3.83494.57641-1.14352 1.86634-2.505503 4.73327-2.505503 2.8669 0 4.1568 1.361983 4.7344 2.503173.512 1.2102.7314 2.52407.6403 3.83495-.1182 1.96703-.89 3.8382-2.1929 5.3166.8001.536 1.6423 1.0062 2.5183 1.4062zm3.0145 6.5496c.1171.0002.2294-.0467.3115-.1302.0806-.0817.1257-.192.1255-.3068.0112-1.1625-.3755-2.2938-1.0959-3.2062-.9015-.6997-1.8897-1.2798-2.9401-1.7258-1.0028-.4329-1.9529-.9787-2.8321-1.6269l-.882-.8332.7658-.9414c1.1121-1.2462 1.7802-2.82554 1.9001-4.49149.0854-1.10872-.086-2.22221-.5009-3.2539-.7239-1.25595-2.1271-1.95914-3.5665-1.78731-1.4395-.17214-2.84281.53113-3.5665 1.78731-.41418 1.02987-.58556 2.1413-.50086 3.24809.12108 1.66574.78997 3.2446 1.90236 4.4904l.7658.9413-.88201.8344c-.87896.6484-1.82914 1.1942-2.83205 1.6269-1.05051.4465-2.03908 1.0265-2.94129 1.7257-.71163.9172-1.09724 2.0454-1.09586 3.2063-.00112.1167.04401.2291.1255.3126.08155.0829.19285.1297.30912.1302z" fill-rule="evenodd"/><path d="m20.5529 15.6707.308-.2552-.0248-.0299-.0301-.0246zm-3.2795-1.9755-.1662.364.0107.0045zm4.7588 6.0871-.4-.0005.0001.0066zm-1.7431 1.7699v-.4zm-17.4316 0v-.4h-.00003zm-1.74316-1.7699.40001.0061-.00001-.0066zm1.4782-4.1092-.25306-.3098-.03015.0246-.02483.03zm3.27946-1.9756.15561.3687.0103-.0047zm2.51944-1.4061.22269.3322.37947-.2543-.30218-.3426zm-2.19289-5.31667.39931-.02381-.00027-.00389zm.64148-3.83496-.35718-.18005-.00596.01181-.00516.01218zm9.46767-.00232.3684-.15585-.0053-.01258-.0062-.0122zm.6403 3.83496-.399-.02771-.0003.00372zm-2.1929 5.31659-.3001-.2644-.3019.3426.3794.2542zm5.8443 7.8256-.2848-.2809-.0004.0004zm-.3115.1302.0008-.4h-.0008zm.437-.437-.4-.0039v.0046zm-1.0959-3.2062.314-.2479-.0302-.0382-.0385-.0299zm-2.9401-1.7258-.1585.3673.0022.0009zm-2.8321-1.6269-.2746.2907.0177.0168.0196.0144zm-.882-.8333-.3103-.2524-.2344.2881.27.2551zm.7658-.9413-.2984-.2663-.0061.0068-.0058.0071zm1.9001-4.49148-.3988-.03075-.0002.00205zm-.5009-3.25391.3711-.14926-.0105-.02611-.014-.02438zm-3.5665-1.78732-.0475.39717.0475.00567.0474-.00566zm-3.5665 1.78732-.3466-.19967-.01402.02435-.01049.02607zm-.50086 3.24808.39895-.029-.00012-.00152zm1.90236 4.49041.31029-.2525-.0058-.0071-.00612-.0068zm.7658.9413.2749.2906.2697-.2551-.2343-.2879zm-.88201.8344.23746.3219.01967-.0145.01775-.0168zm-2.83205 1.6269.15646.3682.00199-.0009zm-2.94129 1.7257-.24503-.3161-.03998.031-.03102.0399zm-1.09586 3.2063.4.0038v-.0043zm.1255.3126-.2863.2793.00117.0012zm.30912.1302-.00136.4h.00136zm17.94849-4.8838c-1.0229-.8358-2.1601-1.5208-3.3771-2.0343l-.311.737c1.1467.4839 2.2181 1.1293 3.1819 1.9168zm1.6262 4.4218c.0019-1.5946-.554-3.1395-1.5713-4.3673l-.616.5105c.8982 1.084 1.389 2.448 1.3873 3.8558zm-.616 1.5301c.4029-.4091.6248-.9627.616-1.5367l-.7999.0122c.0055.3598-.1336.7068-.3861.9631zm-1.5271.6393c.5741 0 1.1242-.2303 1.5271-.6393l-.57-.5614c-.2524.2564-.5973.4007-.9571.4007zm-17.4316 0h17.4316v-.8h-17.4316zm-1.52713-.6393c.40288.409.95303.6393 1.52715.6393l-.00005-.8c-.35984 0-.70464-.1443-.95713-.4007zm-.615982-1.5367c-.008804.574.213099 1.1276.615982 1.5367l.56997-.5614c-.25249-.2563-.39156-.6033-.38605-.9631zm1.570112-4.3583c-1.01657 1.2272-1.572005 2.7713-1.570159 4.3649l.799999-.001c-.00163-1.4069.48875-2.7701 1.38624-3.8535zm3.43195-2.0889c-1.21688.5136-2.35405 1.1987-3.37697 2.0343l.50612.6196c.96385-.7874 2.03534-1.4329 3.18195-1.9169zm2.45231-1.3699c-.78223.5242-1.60584.9839-2.46267 1.3744l.33182.728c.89634-.4086 1.75793-.8895 2.57622-1.4379zm-2.3695-4.96055c.12264 2.05631.92951 4.01255 2.29221 5.55745l.59995-.5293c-1.24461-1.4109-1.98156-3.19765-2.09358-5.07578zm.67247-4.01484c-.53728 1.26797-.7676 2.6449-.67222 4.01873l.79808-.05541c-.08666-1.24819.1226-2.49919.61074-3.6512zm5.10157-2.749433c-1.4993 0-2.61579.357028-3.4417.887353-.82451.52941-1.33509 1.21584-1.64875 1.83809l.71437.3601c.26274-.52124.68533-1.08756 1.36662-1.52502.67988-.43655 1.64176-.76052 3.00946-.76052zm5.0913 2.722543c-.3142-.62084-.825-1.30653-1.6496-1.83556-.826-.529949-1.9424-.886983-3.4417-.886983v.800003c1.3676 0 2.3296.32396 3.0097.76031.6815.43726 1.1045 1.00316 1.3678 1.52349zm.6825 4.0433c.0954-1.37362-.1345-2.75039-.671-4.01852l-.7368.3117c.4875 1.15228.6964 2.40326.6097 3.6514zm-2.2919 5.55338c1.3618-1.5453 2.1685-3.50111 2.2921-5.55709l-.7986-.04799c-.1128 1.87804-.8497 3.66458-2.0937 5.07618zm2.3843.7778c-.8563-.391-1.6796-.8507-2.4618-1.3746l-.4452.6647c.8181.5479 1.6791 1.0287 2.5748 1.4377zm2.8747 6.5028c-.0067.0068-.0159.0107-.0255.0107l-.0015.8c.2245.0004.4398-.0896.5973-.2497zm.0107-.0256c0 .0095-.0037.0185-.0103.0252l.5695.5618c.1547-.1568.2412-.3683.2408-.5884zm-1.0098-2.9591c.6638.8408 1.0201 1.8833 1.0098 2.9545l.8.0078c.0121-1.2538-.405-2.474-1.1819-3.458zm-2.7825-1.6054c1.0186.4325 1.977.995 2.8512 1.6735l.4905-.6319c-.9288-.7209-1.9469-1.3185-3.0291-1.778zm-2.9131-1.6732c.9035.6663 1.8801 1.2273 2.9109 1.6723l.317-.7345c-.9748-.4209-1.8985-.9515-2.7532-1.5817zm-.9194-.8644.8821.8332.5493-.5815-.882-.8332zm.7302-1.4845-.7658.9413.6206.5049.7658-.9413zm1.8114-4.26778c-.1135 1.57782-.7463 3.07368-1.7995 4.25388l.5969.5327c1.1709-1.3122 1.8744-2.97509 2.0005-4.72918zm-.473-3.07595c.392.97461.5539 2.0265.4732 3.0739l.7976.06149c.0902-1.17006-.0907-2.34516-.5286-3.43391zm-3.148-1.5394c1.2804-.15284 2.5286.47268 3.1725 1.58989l.6932-.3995c-.8039-1.39468-2.3621-2.17554-3.9605-1.98475zm-3.2673 1.58982c.64372-1.11739 1.892-1.74293 3.1724-1.58983l.095-.79434c-1.5985-.19114-3.15694.58981-3.9606 1.98482zm-.44863 3.01788c-.08001-1.04552.08189-2.09543.47315-3.06831l-.74223-.2985c-.4371 1.08688-.61798 2.25981-.52859 3.42785zm1.8019 4.25453c-1.05358-1.18-1.68711-2.67534-1.80179-4.25301l-.79789.058c.12748 1.75381.83174 3.41611 2.00295 4.72781zm.77773.9553-.76581-.9414-.62057.5049.76583.9413zm-.91743 1.3774.88203-.8344-.54975-.5812-.88204.8344zm-2.94848 1.7036c1.03089-.4447 2.00757-1.0058 2.91106-1.6723l-.47492-.6438c-.85444.6303-1.77812 1.1609-2.75304 1.5815zm-2.85471 1.6746c.87504-.6782 1.83385-1.2407 2.85272-1.6737l-.31292-.7363c-1.08214.4599-2.10048 1.0574-3.02986 1.7777zm-.94089 2.8896c-.00128-1.0719.35479-2.1137 1.01189-2.9606l-.63206-.4904c-.76616.9875-1.18132 2.2021-1.17983 3.452zm.0118.0338c-.00768-.0079-.01193-.0185-.01182-.0295l-.79996-.0076c-.00213.2224.08387.4366.23918.5957zm.02419.0095c-.00949-.0001-.01863-.0039-.02535-.0107l-.57027.561c.15638.159.36982.2489.59289.2496zm17.42902 0h-17.43039v.8h17.43039z"/></g></svg>