<svg fill="none" height="20" viewBox="0 0 26 20" width="26" xmlns="http://www.w3.org/2000/svg"><g fill="#727c8e"><path clip-rule="evenodd" d="m3.93482 1h18.13528c1.6189 0 2.9349 1.32092 2.9299 2.93979v12.38981c0 1.6189-1.316 2.9348-2.9348 2.9348h-18.13038c-1.61887 0-2.93482-1.3159-2.93482-2.9348v-12.39478c0-1.61887 1.31595-2.93482 2.93482-2.93482zm18.13528 16.9236c.879 0 1.5941-.7151 1.5941-1.594h-.005v-12.38986c0-.87895-.7151-1.59404-1.594-1.59404h-18.13039c-.87895 0-1.59404.71509-1.59404 1.59404v12.38986c0 .8789.71509 1.594 1.59404 1.594z" fill-rule="evenodd"/><path d="m25 3.93979-.2-.00061v.00061zm-1.3358 12.38981h.2v-.2h-.2zm-.005 0h-.2v.2h.2zm-1.5891-15.5296h-18.13528v.4h18.13528zm3.1299 3.1404c.0053-1.72948-1.4002-3.1404-3.1299-3.1404v.4c1.5081 0 2.7345 1.23092 2.7299 2.73918zm0 12.3892v-12.38981h-.4v12.38981zm-3.1348 3.1348c1.7293 0 3.1348-1.4055 3.1348-3.1348h-.4c0 1.5084-1.2264 2.7348-2.7348 2.7348zm-18.13038 0h18.13038v-.4h-18.13038zm-3.13482-3.1348c0 1.7293 1.40549 3.1348 3.13482 3.1348v-.4c-1.50841 0-2.73482-1.2264-2.73482-2.7348zm0-12.39479v12.39479h.4v-12.39479zm3.13482-3.13481c-1.72932 0-3.13482 1.40549-3.13482 3.13481h.4c0-1.5084 1.22641-2.73481 2.73482-2.73481zm19.52938 15.5296c0 .7685-.6256 1.394-1.3941 1.394v.4c.9894 0 1.7941-.8046 1.7941-1.794zm.195.2h.005v-.4h-.005zm-.2-12.58987v12.38987h.4v-12.38987zm-1.394-1.39403c.7685 0 1.394.62555 1.394 1.39403h.4c0-.9894-.8046-1.79403-1.794-1.79403zm-18.13039 0h18.13039v-.4h-18.13039zm-1.39404 1.39403c0-.76848.62554-1.39403 1.39404-1.39403v-.4c-.98941 0-1.79404.80463-1.79404 1.79403zm0 12.38987v-12.38987h-.4v12.38987zm1.39404 1.394c-.7685 0-1.39404-.6255-1.39404-1.394h-.4c0 .9894.80463 1.794 1.79404 1.794zm18.13529 0h-18.13529v.4h18.13529z"/><path d="m16.1359 9.97828 5.8697-5.26381c.2731-.24829.2979-.67039.0496-.94848-.2483-.27312-.6704-.29795-.9484-.04966l-8.0944 7.26507-1.5791-1.41032c-.005-.00497-.01-.00994-.01-.0149-.0347-.03476-.0695-.06456-.1092-.09435l-6.42583-5.75047c-.27809-.24829-.70019-.22346-.94848.05463s-.22346.70019.05462.94848l5.93917 5.30853-5.91434 5.5369c-.26815.2533-.28305.6754-.02979.9485.13408.139.31285.2135.49162.2135.16387 0 .32774-.0596.45686-.1788l6.00367-5.6163 1.6288 1.455c.1292.1142.2881.1688.447.1688s.3228-.0596.4469-.1738l1.6735-1.4997 5.969 5.671c.1291.1242.2979.1837.4618.1837.1788 0 .3526-.0695.4866-.2085.2533-.2682.2434-.6952-.0248-.9485z" stroke="#727c8e" stroke-width=".4"/></g></svg>