<svg fill="none" height="20" viewBox="0 0 24 20" width="24" xmlns="http://www.w3.org/2000/svg" xmlns:xlink="http://www.w3.org/1999/xlink"><mask id="a" height="20" maskUnits="userSpaceOnUse" width="24" x="0" y="0"><path d="m0 0h24v19.7647h-24z" fill="#fff"/></mask><g mask="url(#a)"><path clip-rule="evenodd" d="m23.5475 9.10842v-3.50638c-.0013-1.14195-.9604-2.06738-2.1439-2.0686h-2.8981l-3.7597-3.628982c-.134-.12952-.3158-.20231-.5054-.20231s-.3714.07279-.5053.20231l-1.5016 1.448912-1.5017-1.448912c-.1339-.12952-.3157-.20231-.5053-.20231s-.37143.07279-.50535.20231l-3.75747 3.628982h-3.81985c-1.183477.00122-2.14255676.92665-2.14383 2.0686v11.41076c.00127324 1.142.960353 2.0674 2.14383 2.0686h19.25977c1.1835-.0012 2.1426-.9266 2.1439-2.0686v-3.5064c.5117-.223.841-.7142.842-1.2561v-1.8836c-.0001-.5426-.3295-1.03491-.842-1.25828zm-2.1439 8.59438h-1.6795c.0813-.2215.1228-.4548.1225-.6899v-3.3849h2.2709v3.3849c0 .3806-.3194.6893-.7139.6899zm-19.97477-.6899c0 .381.32011.6899.71499.6899h15.56008c.3949 0 .715-.3089.715-.6899v-3.3849h-2.6867c-.7886-.0012-1.4276-.6178-1.4289-1.3787v-1.8836c.0013-.7609.6403-1.37745 1.4289-1.37868h2.6867v-3.38489c0-.38102-.3201-.68991-.715-.68991h-15.56008c-.39488 0-.71499.30889-.71499.68991zm20.68977-11.41077v3.38489h-2.2709v-3.38489c.0003-.23503-.0411-.46837-.1224-.68991h1.6783c.3949 0 .715.30889.715.68991zm-6.3864 4.76367v1.8835h7.2273v-1.8835zm.7531-6.83224h-4.4898l2.2443-2.16557zm-8.50022-.00009h1.9902l1.24862-1.20706-.9945-.95962z" fill="#5f84ff" fill-rule="evenodd"/></g></svg>