<svg fill="none" height="19" viewBox="0 0 24 19" width="24" xmlns="http://www.w3.org/2000/svg"><path clip-rule="evenodd" d="m19.4214 1.55556h-2.5641v1.55557h1.7233l3.871 5.96558v5.86449h-.6848c-.3549-1.2828-1.5177-2.1705-2.843-2.1705s-2.4881.8877-2.843 2.1705h-.7719v-14.9412h-15.3089v11.2156h13.7605v3.7256h-5.79792c-.35496-1.2828-1.5177-2.1705-2.84303-2.1705s-2.48807.8877-2.84303 2.1705h-.72813v-2.1708h-1.54839v3.7256h2.28c.35317 1.2826 1.51493 2.1707 2.83955 2.1707s2.48638-.8881 2.83955-2.1707h8.1252c.3531 1.2826 1.5149 2.1707 2.8395 2.1707s2.4864-.8881 2.8396-2.1707h2.2366v-7.88246zm-14.30166 15.55554c-.76446-.0064-1.37959-.6331-1.37533-1.4011s.6263-1.3877 1.39078-1.3856 1.3831.6253 1.38313 1.3933c-.00363.7726-.62954 1.3962-1.39858 1.3934zm-3.57135-7.451h5.33187v-3.27485h-5.33187zm5.33187-4.83053h-5.33187v-3.27407h5.33187zm1.54839 4.83131h5.33185v-3.27563h-5.33185zm5.33185-4.83053h-5.33185v-3.27485h5.33185zm3.7882 10.87915c-.0046.7681.6104 1.395 1.3749 1.4016.7689.003 1.3949-.6202 1.399-1.3926.0004-.7681-.618-1.3916-1.3825-1.3941s-1.3869.617-1.3914 1.3851z" fill="#5f84ff" fill-rule="evenodd"/></svg>