<svg fill="none" height="23" viewBox="0 0 24 23" width="24" xmlns="http://www.w3.org/2000/svg"><path clip-rule="evenodd" d="m22.5 6.02267h-4.746c.3405-.23453.633-.46755.837-.67635 1.209-1.22712 1.209-3.2244 0-4.451516-1.1745-1.192315-3.2235-1.193828-4.3995 0-.6495.658196-2.376 3.337876-2.1375 5.127866h-.108c.237-1.78999-1.488-4.46967-2.1375-5.127866-1.176-1.193828-3.225-1.192315-4.3995 0-1.209 1.227116-1.209 3.224396-.0015 4.451516.2055.2088.498.44182.8385.67635h-4.746c-.8265 0-1.5.67938-1.5 1.51309v3.78274c0 .4176.336.7565.75.7565h.75v9.0786c0 .8337.6735 1.5131 1.5 1.5131h18c.8265 0 1.5-.6794 1.5-1.5131v-9.0786h.75c.414 0 .75-.3389.75-.7565v-3.78274c0-.83371-.6735-1.51309-1.5-1.51309zm-16.02751-4.06107c.3045-.30867.708-.47813 1.137-.47813.4275 0 .831.16946 1.1355.47813 1.011 1.02588 2.01601 3.64655 1.66651 4.01121 0 0-.063.04993-.2775.04993-1.03651 0-3.01501-1.0864-3.66151-1.74308-.6285-.63852-.6285-1.67953 0-2.31806zm-3.4725 19.192h8.25001v-9.0785h-8.25001zm8.25001-10.5917h-9.75v-3.02617h8.634 1.116zm6.2775-8.60033c-.6075-.61431-1.6635-.61583-2.2725 0-1.011 1.02588-2.016 3.64655-1.668 4.0112.0015.00152.0645.04994.279.04994 1.0365 0 3.015-1.0864 3.6615-1.74308.6285-.63853.6285-1.67953 0-2.31806zm3.4725 19.19203h-8.25v-9.0785h8.25zm-8.25-10.5917h9.75v-3.02617h-8.634-1.116z" fill="#5f84ff" fill-rule="evenodd"/></svg>