<svg fill="none" height="23" viewBox="0 0 24 23" width="24" xmlns="http://www.w3.org/2000/svg"><g fill="#5f84ff"><path d="m23.7447 8.4705-11.3763-8.349762c-.2194-.1609839-.5174-.1609839-.7367 0l-11.376439 8.349762c-.2778745.20398-.3382494.59511-.134765.87366.203484.27855.593717.33898.871545.13509l11.007959-8.07943 11.008 8.07939c.111.08152.24.12076.3678.12076.192 0 .3815-.08858.5037-.25586.2035-.2785.1431-.66963-.1348-.87361z"/><path d="m21.76 9.59998c-.3534 0-.64.30293-.64.67662v10.77h-5.1198v-5.8789c0-1.8657-1.4357-3.3834-3.2002-3.3834s-3.20016 1.5178-3.20016 3.3834v5.879h-5.11985v-10.7701c0-.37364-.28659-.67657-.63999-.67657-.35341 0-.63999.30293-.63999.67657v11.4468c0 .3736.28658.6766.63999.6766h6.3998c.3366 0 .612-.2749.6375-.624.0015-.0158.0025-.0331.0025-.0526v-6.5557c0-1.1194.8614-2.0301 1.9202-2.0301s1.9202.9107 1.9202 2.0301v6.5557c0 .0194.001.0364.0025.052.0252.3493.3007.6246.6375.6246h6.3998c.3535 0 .64-.303.64-.6766v-11.4468c0-.37369-.2866-.67662-.64-.67662z"/></g></svg>