<svg fill="none" height="24" viewBox="0 0 21 24" width="21" xmlns="http://www.w3.org/2000/svg"><path clip-rule="evenodd" d="m18.1513 16.8v-6.6c0-3.72-2.5412-6.72-6.0505-7.56v-.84c0-.96-.847-1.8-1.8151-1.8-.96805 0-1.81511.84-1.81511 1.8v.84c-3.50925.84-6.05042 3.84-6.05042 7.56v6.6l-2.42017 2.4v1.2h20.5714v-1.2zm-7.8656 7.2c1.3311 0 2.4202-1.08 2.4202-2.4h-4.84034c0 1.32 1.08907 2.4 2.42014 2.4zm-5.44536-5.9999h10.89076v-7.8c0-3.00002-2.4202-5.40002-5.4454-5.40002-3.02519 0-5.44536 2.4-5.44536 5.40002z" fill="#5f84ff" fill-rule="evenodd"/></svg>