<svg fill="none" height="24" viewBox="0 0 24 24" width="24" xmlns="http://www.w3.org/2000/svg"><g clip-rule="evenodd" fill="#5f84ff" fill-rule="evenodd"><path d="m16.2811 15.4286c.3509 0 .6925.0979.7756.3072l1.782 4.3891c.0019.0057.0038.0112.0056.0164.007.0201.0129.0368.0129.0534 0 .2164-.434.3767-.7572.3767-.2031 0-.36-.0486-.4061-.1813l-.351-.9281h-2.1145l-.3507.9281c-.0462.1327-.2031.1813-.4063.1813-.3232 0-.7571-.1533-.7571-.3767 0-.0138.009-.0411.0181-.0688l.0003-.001 1.7821-4.3891c.083-.2093.4247-.3072.7663-.3072zm-.0002 1.1794-.8032 2.1421h1.6068z"/><path d="m21.4142 9.79065h-7.205v-3.07727l2.3415-1.67249c.1848-.13202.2945-.34497.2945-.57202 0-.22723-.1097-.44018-.2945-.5722l-2.3697-1.69263c-.1852-1.245483-1.2616-2.20404-2.5576-2.20404h-9.0374c-1.42603 0-2.586 1.15997-2.586 2.586v9.0375c0 1.4259 1.15997 2.5859 2.586 2.5859h7.20483v3.0772l-2.34155 1.6725c-.18475.132-.29443.3452-.29443.5722 0 .2271.10968.4402.29443.572l2.36975 1.6927c.18517 1.2454 1.26157 2.204 2.55757 2.204h9.0376c1.4258 0 2.5858-1.1602 2.5858-2.586v-9.0374c0-1.426-1.16-2.58595-2.5858-2.58595zm-18.8282 3.01245c-.65058 0-1.17975-.5292-1.17975-1.1797v-9.03758c0-.6504.52917-1.17957 1.17975-1.17957h9.0374c.6503 0 1.1795.52917 1.1795 1.17957 0 .22723.1097.44036.2945.5722l1.8349 1.31067-1.8349 1.31067c-.1848.13202-.2945.34515-.2945.5722v3.43909h-.4263c-1.4258 0-2.58577 1.15995-2.58577 2.58585v.4266zm18.8282 9.7906c.6504 0 1.1796-.5292 1.1796-1.1798v-9.0373c0-.6506-.5292-1.1798-1.1796-1.1798h-7.9063-.0019-.0018-1.1276c-.6503 0-1.1795.5292-1.1795 1.1798v5.2718c0 .227-.1097.4402-.2945.5722l-1.83485 1.3107 1.83485 1.3106c.1848.1319.2945.345.2945.572 0 .6506.5292 1.1798 1.1795 1.1798z"/><path d="m10.2857 6.76969c0 .20289-.1786.36744-.39868.36744h-.5497c-.08784.77577-.45099 1.4769-.99719 2.01992.45283.25005.98172.39391 1.54689.39391.22008 0 .39868.16438.39868.36728 0 .20286-.1786.36746-.39868.36746-.80696 0-1.55555-.2324-2.17283-.62769-.6171.39529-1.36568.62769-2.17264.62769-.22007 0-.3987-.1646-.3987-.36746 0-.2029.17863-.36728.3987-.36728.56516 0 1.09405-.14419 1.54689-.39391-.5462-.54302-.90935-1.24415-.9972-2.01992h-.54969c-.22007 0-.3987-.16455-.3987-.36744 0-.2029.17863-.36745.3987-.36745h1.77395v-.89197c0-.2029.17863-.36745.39869-.36745.22025 0 .39888.16455.39888.36745v.89197h1.77395c.22008 0 .39868.16455.39868.36745zm-3.39081.36745c.08674.60206.38304 1.14372.8193 1.56087.43644-.41715.73275-.95881.81948-1.56087z"/></g></svg>